<svg id="Capa_1" data-name="Capa 1" xmlns="http://www.w3.org/2000/svg" viewBox="0 0 394 408"><defs><style>.cls-2{fill:#202020}</style></defs><path d="M146.5 65v-1m1 160v1" fill="none" stroke="#000" stroke-miterlimit="10"/><path class="cls-2" d="M198.06 403c-.26.49.23.56 1.22-.53l.27-1.21zm7.85-6.16c1-1.45 2-3.25.78-2.89-.76 1.66-1.24 1.76-2 3.6-1 1.09-2 1.66-2 1.31-.25.49-1.72 1.51-2 2.37a16.54 16.54 0 0 0 4.93-4.78c.54-.28.29.22.29.39zm102.21-100.75l-.71.6a7.86 7.86 0 0 0 .71-.6zm63.13-62.62c-.46.49-.62.74-.6.8.41-.47.75-.87.6-.8zm4.9-13.08l.6.67a2.72 2.72 0 0 0-.6-.67zm-68.03 75.7l1.83-1.53c-.04-.27-.95.74-1.83 1.53zm-89.35 85.63a9.65 9.65 0 0 0-.78 1l.8-.9a.51.51 0 0 1-.02-.1zm62.01-57.53l-.51.51a3.79 3.79 0 0 0-.23.61zm-21.2 21.34c.5-.46.27-1 .28-1.39a3.33 3.33 0 0 1-.78 1.33c.07.08.23.11.5.06zm-34.43 33.03l-.54.65zm70.94-69.51a.59.59 0 0 0 .34-.05c-.05 0-.17 0-.34.05zm-119.88 68.32c-.05 0 0 .06-.07.08.16.08.23.09.07-.08zM198.9 404l-.37-.32a.8.8 0 0 0-.29.15zM357 200.24l.08.09c.57.48.27.19-.08-.09zM173.07 68.74c2.4-1.69-2.87 3.78.6 1.1-.44.16 2.18-3.41-.6-1.1zm46.31 312.48l.87-.88c-.41.39-.68.66-.87.88zM173.67 69.84l.35-.28zm137.84 85.37a2.34 2.34 0 0 0 .28.64c.03-.06-.03-.21-.28-.64zm33.15 34.29l-.78-.89c.3.39.55.65.78.89zm-51.23-51.24a8.28 8.28 0 0 0-1.19-1.26 2.1 2.1 0 0 0 .14.24 3.93 3.93 0 0 1 1.05 1.02zM275.21 120a4.5 4.5 0 0 0 .25.41l.6.56zM120.63 322.18a4.1 4.1 0 0 1 .48 1.2c.01-.57 2.78 2.01-.48-1.2zM219 381.93a1.13 1.13 0 0 1 .37-.71l-.59.63c.02.15.06.15.22.08zm70.56-241.27l-2.84-3c.77.89 1.8 1.96 2.84 3zM53.61 194.72l-.61.72a3.38 3.38 0 0 0 .61-.72zm224.46-65.55a13.38 13.38 0 0 0-1.36-1.91 1.87 1.87 0 0 0-.44-.23zM121.12 323.39z"/><path class="cls-2" d="M141.13 341.52c-2.74-2.77-1.8-.79-2.69-1.07-3.44-3.15-1.14-1.91-2-3.3-2.2-1.92-4.25-3-5.77-4.57 0-.2-.29-.53.17-.29-2.59-1.76-6.48-6.43-9.53-8.44a1.19 1.19 0 0 1-.2-.46c.14.67-.06 1-.33 1.1-1.25-1.22-2.63-2-2.75-2.77a3.39 3.39 0 0 0 1.41.94l-1.44-1.14c-.68-1.66 1.93 1.59 2.3 1.23-2.69-2.37-6-4.91-7.84-7 .08-.89 4.69 4.37 2.53 1.36l2.82 3.18c-1.53-3.05 1.76 1.87.47-1.05-3.8-4.08-4.65-4.16-8.45-8.23-1.15-.62-.1.68-1.25.06-6.07-5.11-3.19-5.6-8-9.08-1.38-.74-2.4-.54-5-3.79l1.54.45c-3.77-3.87-3-1.4-6.6-5.76.93.5 3.18 2.82 2.67 2.18-2.16-3-2.14-1.53-4.13-3.52l.07-.89c-4.14-4-9-8.12-13.56-12.53.4.1 1.32.72.41-.48-5.86-5.41-11.98-12.15-17.19-17.92l-2.51-1.67c-.48-.49-.71-1.09-.11-.65-2-2.29-.37.16-1.56-.71-1.24-1.18-1.36-1.84-.47-1.19-4.12-3.42-11.49-10-15-14.39l.9.65c-2.92-3.26-4.34-2.63-6.82-5.89l.62.48c-2-2.13-4.16-4.28-6.28-6.39l-3.16-3.15-1.12-1.12-.67-.7 2.39-2.18c1.18-1.06 2.32-2 3.41-2.9.38-1.57 6.91-6.37 6.51-7.63 4.24-3.42 3.29-2.17 9-7.29 1.48-1.4 1.63-2.67 3.32-4.53l.48.39 2-2.88 1.81-.76 1.47-1.78c-.69.64-1.61 1.21-1.64 1 2.42-2.81 6.67-6.06 7-5.9l5.8-6.54c0 .31-.94 1.41-1.64 2.33 2.85-3.74 1.06-.14 3.67-3.56-.51.3 0-.48-.06-.64a65.7 65.7 0 0 0 7.62-7.31l-.19.79c4.66-4.5 9.51-9.8 14.65-14.93-2 1.7-2.08.76-.62-.8l1.06-.14c.69-1.26-1.75 1.4-.1-.95 2-1.86 1.82-.76.87.49l2.17-2.49c.27 0-.2.62-.17.93.67-1.24 4.49-3.56 5.38-5.44h.2c5.14-5.14 7.31-7.62 11.47-11.83-.32-.48 1.41-2 2.33-3.6 3.2-2.95 6.93-6 10.6-9.78 2.41-2.81.42-1.1 1.36-2.51.55.17 4.22-3.56 2.56-1.38 4.39-4.51 5.61-5.75 10.94-11.67-.76.46-1.51 1.08-1.28.6 1-1.08 2.47-2.17 2.5-1.85l-.23.31c5.77-6.86 15.62-13.51 19.89-19.3l-.24.32 4.82-5.6c2.46-2.34-1.17 1.71.83.16 5-6.23 9-8.8 13.2-13.83 4.65-2.52 12.65-12.8 18.17-16.95h-.54c1-1.5 1.66-1.37 2.64-2.24-.33-.06-1.58 1.13-.94.22l3.92-4.02 5 5.2 6.62 7c4.41 4.7 8.79 9.42 13.19 14 3.9 4 3.56 1 8 6.56l-1.89-1c8.58 7.46 16.37 16.41 24.7 23.78a4.52 4.52 0 0 1-1.5-1c1.32 2 6.11 6.15 6.42 5.9 1.19 1.25 0 .53.64 1.43 1.47 1.86 4.61 3.74 5.16 5 .09.2-.58-.36-.91-.64 1.25.92 5 5.09 4.36 3.66 2.76 3.13 5.81 5.46 7.92 8 2 1.1 4.83 5.25 5.94 5.12-.85.43 4.65 5.68 6.81 7.24-.82-.43 1.42 1.82.42 1.36 2.13 2.12 4.2 3.94 4.16 3.24 3.15 4.69 8.48 7.26 9.71 10.44 6.65 6 12.73 11.58 18.56 17.11-.85.43-6.34-6.21-6.77-5.3 5.65 5.12 9.3 7.68 14.49 13.18 1.3 1.47-1.06-.51-1.64-.87 5.65 5.12 10.35 10.47 15.49 14.91a5 5 0 0 1-1.19-.85c1 .92 2.1 2.29 2.28 1.89l-1-.84c-1.08-1.93 4.63 2.87 5 2.82-2.43-.77 4.52 4.94.93 3.44.67.57 1.59 1.21 1.64.87.87 1 1.05 1.39-.11.67 3.54 3.23 2.65 1.72 5.7 4.79-.15.13-.82-.44-1.3-.59a32.52 32.52 0 0 1 6.12 5.27c-.24-.07-.05.34-.82-.44 4.49 4.41 8.31 6.85 12.92 12-1-.41-.66 0-.07.72l.44.5.17.27c.08.18.07.32-.1.41l.53.39-.44.61a9.48 9.48 0 0 0 .9-.38 11.74 11.74 0 0 0-.82.92l-1.4 1.63a28.1 28.1 0 0 1-3 3.07l1.48-1.93-4.2 4.41 2.64-2.24c-2 2.6.91.42-2.29 3.33.57-.67-2.3 2.29-3.81 3.18a22.81 22.81 0 0 1-3.79 4.22c-.61.27-.22-.94-.62-.77-.68 1.56-5.26 5.5-6.21 7.39.36-.58.11-.88-.1-.78l-.58 1.3c-1.18 1-1.39 1.05-1.44.65-3.27 3.14 1.68-.34-2.4 3.17a8.18 8.18 0 0 1 .64-.92c-4 3.67-7.15 7.6-10.83 10.93-1.57.5 2.93-3.19 1.3-2.46-5 5.15-9.83 11.11-14.84 15.87l1-.85c.07 1.43-4 3.27-6.14 6.1.55-.66.38-1.21.3-1-3.47 3.23-6.66 7-11.5 12.35l.43-.82c-2.14 1.8-5.3 5.1-7.52 7.14-.44.83-1.69 2-.67 1.56-7.67 5.47-11.95 13.13-18.7 18 .7-.69 1.5-1.83.94-1.27l-4.79 5.14c.72-.06.85-.45 2.15-1.24a19.88 19.88 0 0 1-2.92 3.61c2-2.45-.55-.51-1.69.28.26-.07 0 .38.22.4-3.18 2 .22 1.09-3.71 4.24v-.36a52.67 52.67 0 0 1-3.71 4.25c-1 .21 1.24-1.59 1-2-2 2-3.25 4.68-5.45 6.13.75-1 2-2.19 2.73-3.15a20.3 20.3 0 0 0-4.09 3.28l.16-.13-3.6 3.2 1-.75c-1.53 3.5-4.94 5.3-7.68 9.33 2.68-3.9.19-.9 0-1.58-1 .75-2.44 1.93-2.18 1.44-1.26 1.94-2.95 2.4-4.7 5.16-.24 0-1.73 1.7-1.71 1-2 2.19.73-.25.73.1-2.74 3.68-8.11 7-12.08 12.23-3.71 4.24-4 5.44-7.44 9.37-1.47 1 .51-1.53.51-1.53a39 39 0 0 0-5.42 5.41c.26-.5-.23-.21-1 .22-1.48 1.55-.51 1.51-2.72 3.32a9.08 9.08 0 0 1 1-2.08c-1.67 1.92-3.18 3.95-4.91 5.93-.73.25.75-1.49 1.25-2.3-2 2.2-5.18 5.62-5.45 6.65l1.48-1.21c-.74.78-.72.07-.23-.56 1.49-2.09 2.71-2.45 3-2.41l-1.23 1.41c2.16-.55 5.17-5.43 7.88-8.05l-.52 1.7 2.24-3.22c.73-.42 1.45-.49.23.91 2.2-1.61 1.48-1.9 3.44-3.21.23-.13.18 0 0 .17l1.69-2c-.24.49.73.11-.5 1.17 3.68-3 4.95-5.83 6.65-6.65l-.24.32c4.44-4.84 0-.88 3-4.87l3.4-1.27v-.89c.49-.46 1.47-1.38 1.47-1 1.48-2.08-.49.11.26-1.2 2.7-1.91 6.17-6.53 7.37-6.36.5-1.16-2.45 1.95-.22-.74 1.44 0 2.71-3 5.16-4.73-.27 1-2.46 2.81 0 1.05.63-1.92 4.24-4 5.89-5.85-.43-.6 3.65-4.08 6.46-7.23 0 .36 5.88-5.32 8.84-7.9v.16c0-1.05 3-3.81 4.95-6 .23.39 0 .89-1 2.16l1.95-2a11.79 11.79 0 0 1 2-2.66l-.11.88c2.59-2.62 4.79-5.7 8.4-8.79-.17-.55-3.67 1.66-.37-2.12.32.06.79.26-.06 1.27a10.81 10.81 0 0 1 1.62-1.77l-1.09 1.74c1.67-1.38.53-1.07 1.78-2.26.25.3 1.1-.7 1.14-.31a13.73 13.73 0 0 0-1.53 1.53 23 23 0 0 1 4-3.16c-.28 0-.37-.38.6-1.42 2.58-2.63 1.22-.56 2.89-1.93.43-.83 2.3-2.29 1.92-2.75a3 3 0 0 1 1.51-.88c1.16-1.54 6.24-6.35 4.28-5.28l-.38.32.2-.24c4-4.83 9.41-8.94 13.62-13.5l.13.15c2.46-2.78 5.73-5.92 7.3-8.09.77-.77 2.08-1.57 1.91-1.07a36.19 36.19 0 0 1 5.08-5.14c-1.76 2.25.91-.48-1.88 2.24 2.72-2.48 3.53-2.85 5.94-6-.59 1.31 2.41-1.5 3.54-2.85l-2.08 1.57c1.34-1.44 2.58-2.62 3.85-3.83l-.2 1.14c5.89-4.74 8.61-10.56 13.62-13.65 1.08-1.74-3.12 2.65-2.25 1 2.51-2.38 5.74-4.25 6.5-5 3.61-3.09 2.44-3.81 6.12-7.14-.61.28-1.48.26 1-2.52 2.51-2.39 3.71-2.31 2.3-.63-.57.61-.91.84-.94.75-.73.86-1.7 2-.54 1.18l.15-.49c1.38-1 4.73-4.43 4.21-3.36 1.69-2 .52-1.07-.94.22 1.19-1 2.15-1.93 3.05-2.82l4-4-1.88-1.9c-.33-.34-.67-.69-1-1.06l-.93-1c.15.24.54.78.64 1s0 .25-.35-.13l-1.51-1.61c-.38-.39-.69-.69-.93-.91a4.07 4.07 0 0 0-1-.72c-.45-.21-.74-.2-2.38-1.77-1.57-2.08 1.26 0-2.18-3-1.8-2.15 0-.86.94-.21-3.26-2.63-5.29-5.72-6.91-7.46l1.69 1.41a33.52 33.52 0 0 1-2.54-2.38l.55 1.22c-.85-1-1.62-1.74-1.47-1.86-1.15-.72.16 1.27-2-.29-1-1.38-3.88-3.51-3.85-4.38 3.66 4 0-.87 3.33 2.29a21.55 21.55 0 0 1-2.29-2.3c-.09-.19.22 0 .49.26-3.25-4.05-2.18-1.18-6-5 .73.23-.4-1.36-1.07-1.92 1.52 1.53.31 1.15-1.28-.06-2.24-2.63-2.79-2.5-4-3.79L346 191c-.74-.24-1.92-1.49-3.69-3.1.05-.34 1.67 1.4 1.15.71-2.32-1.44-3.79-4.7-6.71-7-1-1.39.36-.59-.59-1.78-3.27-2.61-2.84-3.52-6.2-6.34.55 1.23.79 1.3-1.71-.54l5.31 4.83-3.73-2.78c1.53 1.53 3.45 3 4.31 4-1.83-1.27-1.58-1.2-1.13-.18-1.59-2.61-4.45-3.87-6.53-6.63l.91-.76c-3.27-4-6.9-6.05-11.42-11l1.37 1.67c-1-.3-3-2.87-4.63-4.27.42-.14-.44-1.2-.92-2-.12.28-3.44-3.49-4.43-3.36l-1.74-2.47c-3.67-4-5.16-3.56-8.73-7.33 1.41.81-.06-1.06 2.61 1.18-1.22-1.23-2.27-2.38-2.48-2.21-.55-.89-3.78-3-4.64-4.41a6.39 6.39 0 0 1-2.45-1.67c-.1-.21.14-.13.14-.13s-2.34-2-1.45-.46c-2.9-4.65-10.62-10.49-13.16-14.53-2.77-2.58-6.08-5.71-8.53-8.12.24.07.15-.13.58.36-3.09-3.61-2.86-1.26-6.38-5.36-1.5-2.4 2.27 1.78 1.22.39.39-1.44-4.72-4.47-6.75-7.57l.67.56c-1.65-2.27-5.13-4.43-8.27-7.7 0 0 .24.07.16-.12-2.66-1.72-7-5.72-10.18-8.67 1.32.6 1.59 1.21 1.37.26-1.43-1.33-.18 1-3-1.66-.7-1.1-2.51-3.26-2.39-3.91l2.62 2.58c-.82-1.84-3.38-3.35-4.66-4.81l.39-.05c-4.06-3.91-4.67-3.41-8.91-7.74l.27.61c-2.89-1.79-1.65-2.27-4.4-4.2l-.18-1.29c-1.68-1.41-6-4.87-8.83-7.54 2 1.16 5.44 4.19 7.69 6-1.53-1.54-5.25-5.17-6.32-5.69a14.73 14.73 0 0 1 2.11 1.9 46.45 46.45 0 0 1-8.05-6.76c.53-.17-.11-1.11-1.25-2.41-.58-.64-1.28-1.38-2-2.15L199 43.84a110.19 110.19 0 0 1-3.54 3.3 9.78 9.78 0 0 1-1.94 1.33c-5 5.8-10.88 10.54-17.11 16.89 3.08-1.39-1.81 1.86-.56 2.34a14.48 14.48 0 0 1-2.17 2.14l-5 3.92c-1.31.8 1.2-1.58.87-1.64-3.27 3.14-1.71 1-4.06 2.87.74-.13-.68 1.56-2.62 3.27l3-2.18c-4 5-4.6 3.15-8.66 8.13l1.15-1.71c-2.13 2.5-8.53 8.55-10.11 11.5-.51.31-1.29.62-.33-.47-5.65 5.44-11.6 13.08-16.33 17l.21-.64c-1 1.1-1.41 2.2-2.91 3.28 0-.15.2-.63-.29-.16a31 31 0 0 1-3.87 4.36l.94-1.4c-5.69 5.12-7.72 8.87-12.11 13.55-.61-.64-5.06 3.41-7.29 5.44v-.17C99.89 141 96.08 146 90.5 152.05 86.21 155 78 164 71.77 169.46c1-.78.34.63-.63 1.73-1.49 1.23-3.34 4.2-3.7 3.41l.5-.47c-1.59.46-4.24 3.42-6.45 5.59l.39 1.11c-6.81 4.64-14.61 15.41-18.71 17.56-1.19 1.57-2.91 3.28-4.09 4.83l-.33-.47c-3.93 3.73-5.89 5.59-10.53 10.42l.68-1.26c-2.69 2.65-2.21 4.53-4.65 7l-1.34.14-1.1 1.08-1.18 1.14-3.85 3.73 4 4.16c.78.82 1.57 1.64 2.37 2.44a56.62 56.62 0 0 0 5 4.54c-.16 0-.47.05-1.25-.68 2.18 2.21 8.08 8.89 8.1 7.27-.48.59 4.76 4.86 7.51 7.14h-.79a26.37 26.37 0 0 1 5.94 4.37c.65.76.3.94-.53-.1 2.13 2.55 2.19 1.45 4.82 4.5l-1.31-.8A12.93 12.93 0 0 0 54.6 261c1.68 1.36 4.47 4.67 4.47 5.38a9.23 9.23 0 0 1 3.47 2.62c.06.33-.54-.11-.84-.33 3.76 4.3 6.45 5.54 8.83 8.69-.07.19 0 .44.23.71-3.19-3.21-5.74-5.81-5.47-5.6-.37.36 2.15 3-.4 1.46 2.34 1.8 6.49 4.75 8.84 7.44a2 2 0 0 1 .2.46l-.3-.22a11.51 11.51 0 0 0 1.65 1.53c.75.87 1.21 1.42 2 2.2 0 .6 2.8 3.13 4.08 4.43.29-.5 1.91 1.25.66-.66.17.23-.29-.2-1.17-1-.2-.18-.44-.4-.59-.51l.13.06-3.23-3.18a13.17 13.17 0 0 1 3.65 3.36c.92.4 1.91.87 2.45 1.15 1.2 2.32 4.3 6 4.44 6.84 4.15 3.71 9.41 9.12 12.64 10.85a3.94 3.94 0 0 1 1.37 2 22.86 22.86 0 0 0-1.94-1.59c2.43 2 6.71 6.56 7.76 6.57 2.59 3.05-2.06-1.11 1.9 2.68l-.69-.36c6.79 8.45 13.73 11.06 21.11 20.58a4.31 4.31 0 0 1-.82-1.18c9.17 10.11 20.3 19.41 29.06 29.67 2.55 2.85 3.18 2.81 5.08 4.2l.16 1 3.31 2.32c4.36 3.64 5.88 8 11.62 12.36l-.36-.94c1.76 1.87 5.92 5.58 5.29 5.61a3 3 0 0 1 1.46 1.16l-.17.28 4.85 4.08c3.3 3.63-1.43.35 3.58 5.44 2 1.79 6 4.7 5.44 3.85-.75-.77-1.8-2.08-1.63-2.36l1.83 1.6c1-.35 3 .3-.79-4.38l-3.34-2.53-.63-1.27 2.5 2.45a10.33 10.33 0 0 0-3.44-3.14 3.82 3.82 0 0 0-.88-1.58l-3.53-2.2c-.09-.61 1.8.78 0-1.3-1.64-1.06.72 1.87-1.71-.17-1.11-1.71-.45-1.54-2.36-2.93-.06-.4.4-.16 1.13.42-1.68-1.27-4-3.8-5.08-4.21-1.1-1.84-5.06-4.86-4.29-5.34a31.07 31.07 0 0 1-4.45-3.42c3.21 1.71-5-5.1-3.55-5.24-2.5-1.16-6.89-6.29-10.49-9.15a3 3 0 0 1 .94.69 41.61 41.61 0 0 1-3.13-3.9c-.78.32-3.74-2.38-5.61-3.57-1.69-2.76 2 .71 1.82-.51-.34.56-4.32-3.42-3.94-2.29-1.37-2-1.31-1.63-1.73-3-1 .4-1.7-1.47-3.54-2.45-2.12-2.81 0-1.29-2.91-3.79-1.06-1.49 1.59.68 1.59.68zm-65.64-63.25l1.35 1.31zm-5.42-5.41c.64.68 1.46 1.5 2.33 2.37.06.32-.29.26-.83-.29.43.2-.81-1.15-1.5-2.08zm8.7 14.21c-.91-.8-1.12-1.16-1.16-1.36l1.55 1.45h.15a1.14 1.14 0 0 1-.54-.09z"/><path class="cls-2" d="M80.83 288.09c.14.12.22.17.39.33-.14-.21-.28-.41-.43-.6l-.42-.18zm226.46 8.7l.12-.1a1.25 1.25 0 0 1-.3.18c.1-.06.11-.04.18-.08zM47.78 200.95l-.11-.09-.38.56.49-.47zM276.1 325.26a1.36 1.36 0 0 0-.5.29 2.62 2.62 0 0 0 .5-.29zm-12.98 12.79l-2 1.68c.88-.73 1.52-1.24 2-1.68zM253 347.76a.57.57 0 0 0 0 .36zm89.69-154.92l-.4-.36c-.98-.82-.29-.24.4.36zm21.42 44.75c.43-.57.85-1.13 1.32-1.7-.86.81-1.52 1.45-1.32 1.7zM289.87 141l-.32-.32zm77.75 92.72a18 18 0 0 0-2.19 2.17 24.9 24.9 0 0 0 2.19-2.17zM209.9 390.51l-.49.46v.12zm-.48.58l-.48.58a2.12 2.12 0 0 0 .48-.58zm-1.5 1.8l1-1.22a4.71 4.71 0 0 0-1 1.22zm15.28-15.31v-.29a.3.3 0 0 0 0 .29zm3.95-4.02a41.3 41.3 0 0 0-3.93 3.49v.24c.4-.84 3.27-2.59 3.93-3.73zm18.41-14.85l-3.45 3.22c.73-.43 1.71-1 .23.56 4.66-3.75-1.22.51 3.22-3.78zm10.58-10.14c-1.72 1.87.24.21.23.39 1-1.28 1.24-1.59-.23-.39zM331 273.75l.18.54c1.3-1.43-.18-.15-.18-.54zm12.4-16.18l-1.57 1.13-.31.97 1.88-2.1zm11.03-5.87l-.55.66 2.17-2.44-1.62 1.78zM278.8 122.93v.86c.99.86 1.68.55 0-.86zm-54.71-53.8a9.62 9.62 0 0 0-2.91-3.2c1.19 1.25 2.24 2.64 2.91 3.2zM58.59 182.99l.95-1.24-1.94 2.18.99-.94zM198.06 382c-.26.49.23.56 1.22-.53l.27-1.21zm7.85-6.16c1-1.45 2-3.25.78-2.89-.76 1.66-1.24 1.76-2 3.6-1 1.09-2 1.66-2 1.31-.25.49-1.72 1.51-2 2.37a16.54 16.54 0 0 0 4.93-4.78c.54-.28.29.22.29.39zm102.21-100.75l-.71.6a7.86 7.86 0 0 0 .71-.6zm63.13-62.62c-.46.49-.62.74-.6.8.41-.47.75-.87.6-.8zm4.9-13.08l.6.67a2.72 2.72 0 0 0-.6-.67zm-68.03 75.7l1.83-1.53c-.04-.27-.95.74-1.83 1.53zm-89.35 85.63a9.65 9.65 0 0 0-.78 1l.8-.9a.51.51 0 0 1-.02-.1zm62.01-57.53l-.51.51a3.79 3.79 0 0 0-.23.61zm-21.2 21.34c.5-.46.27-1 .28-1.39a3.33 3.33 0 0 1-.78 1.33c.07.08.23.11.5.06zm-34.43 33.03l-.54.65zm70.94-69.51a.59.59 0 0 0 .34-.05c-.05 0-.17 0-.34.05zm-119.88 68.32c-.05 0 0 .06-.07.08.16.08.23.09.07-.08zM198.9 383l-.37-.32a.8.8 0 0 0-.29.15zM357 179.24l.08.09c.57.48.27.19-.08-.09zM173.07 47.74c2.4-1.69-2.87 3.78.6 1.1-.44.16 2.18-3.41-.6-1.1zm46.31 312.48l.87-.88c-.41.39-.68.66-.87.88zM173.67 48.84l.35-.28zm137.84 85.37a2.34 2.34 0 0 0 .28.64c.03-.06-.03-.21-.28-.64zm33.15 34.29l-.78-.89c.3.39.55.65.78.89zm-51.23-51.24a8.28 8.28 0 0 0-1.19-1.26 2.1 2.1 0 0 0 .14.24 3.93 3.93 0 0 1 1.05 1.02zM275.21 99a4.5 4.5 0 0 0 .25.41l.6.56zM120.63 301.18a4.1 4.1 0 0 1 .48 1.2c.01-.57 2.78 2.01-.48-1.2zM219 360.93a1.13 1.13 0 0 1 .37-.71l-.59.63c.02.15.06.15.22.08zm70.56-241.27l-2.84-3c.77.89 1.8 1.96 2.84 3zM53.61 173.72l-.61.72a3.38 3.38 0 0 0 .61-.72zm224.46-65.55a13.38 13.38 0 0 0-1.36-1.91 1.87 1.87 0 0 0-.44-.23zM121.12 302.39z"/><path class="cls-2" d="M141.13 320.52c-2.74-2.77-1.8-.79-2.69-1.07-3.44-3.15-1.14-1.91-2-3.3-2.2-1.92-4.25-3-5.77-4.57 0-.2-.29-.53.17-.29-2.59-1.76-6.48-6.43-9.53-8.44a1.19 1.19 0 0 1-.2-.46c.14.67-.06 1-.33 1.1-1.25-1.22-2.63-2-2.75-2.77a3.39 3.39 0 0 0 1.41.94l-1.44-1.14c-.68-1.66 1.93 1.59 2.3 1.23-2.69-2.37-6-4.91-7.84-7 .08-.89 4.69 4.37 2.53 1.36l2.82 3.18c-1.53-3.05 1.76 1.87.47-1.05-3.8-4.08-4.65-4.16-8.45-8.23-1.15-.62-.1.68-1.25.06-6.07-5.11-3.19-5.6-8-9.08-1.38-.74-2.4-.54-5-3.79l1.54.45c-3.77-3.87-3-1.4-6.6-5.76.93.5 3.18 2.82 2.67 2.18-2.16-3-2.14-1.53-4.13-3.52l.07-.89c-4.14-4-9-8.12-13.56-12.53.4.1 1.32.72.41-.48-5.86-5.41-11.98-12.15-17.19-17.92l-2.51-1.67c-.48-.49-.71-1.09-.11-.65-2-2.29-.37.16-1.56-.71-1.24-1.18-1.36-1.84-.47-1.19-4.12-3.42-11.49-10-15-14.39l.9.65c-2.92-3.26-4.34-2.63-6.82-5.89l.62.48c-2-2.13-4.16-4.28-6.28-6.39l-3.16-3.15-1.12-1.12-.67-.7 2.39-2.18c1.18-1.06 2.32-2 3.41-2.9.38-1.57 6.91-6.37 6.51-7.63 4.24-3.42 3.29-2.17 9-7.29 1.48-1.4 1.63-2.67 3.32-4.53l.48.39 2-2.88 1.81-.76 1.47-1.78c-.69.64-1.61 1.21-1.64 1 2.42-2.81 6.67-6.06 7-5.9l5.8-6.54c0 .31-.94 1.41-1.64 2.33 2.85-3.74 1.06-.14 3.67-3.56-.51.3 0-.48-.06-.64a65.7 65.7 0 0 0 7.62-7.31l-.19.79c4.66-4.5 9.51-9.8 14.65-14.93-2 1.7-2.08.76-.62-.8l1.06-.14c.69-1.26-1.75 1.4-.1-.95 2-1.86 1.82-.76.87.49l2.17-2.49c.27 0-.2.62-.17.93.67-1.24 4.49-3.56 5.38-5.44h.2c5.14-5.14 7.31-7.62 11.47-11.83-.32-.48 1.41-2 2.33-3.6 3.2-2.95 6.93-6 10.6-9.78 2.41-2.81.42-1.1 1.36-2.51.55.17 4.22-3.56 2.56-1.38 4.39-4.51 5.61-5.75 10.94-11.67-.76.46-1.51 1.08-1.28.6 1-1.08 2.47-2.17 2.5-1.85l-.23.31c5.77-6.86 15.62-13.51 19.89-19.3l-.24.32 4.82-5.6c2.46-2.34-1.17 1.71.83.16 5-6.23 9-8.8 13.2-13.83 4.65-2.52 12.65-12.8 18.17-17h-.54c1-1.5 1.66-1.37 2.64-2.24-.33-.06-1.58 1.13-.94.22l3.92-3.97 5 5.2 6.62 7c4.41 4.7 8.79 9.42 13.19 14 3.9 4 3.56.95 8 6.56l-1.89-1c8.58 7.46 16.37 16.41 24.7 23.78a4.52 4.52 0 0 1-1.5-1c1.32 2 6.11 6.15 6.42 5.9 1.19 1.25 0 .53.64 1.43 1.47 1.86 4.61 3.74 5.16 5 .09.2-.58-.36-.91-.64 1.25.92 5 5.09 4.36 3.66 2.76 3.13 5.81 5.46 7.92 8 2 1.1 4.83 5.25 5.94 5.12-.85.43 4.65 5.68 6.81 7.24-.82-.43 1.42 1.82.42 1.36 2.13 2.12 4.2 3.94 4.16 3.24 3.15 4.69 8.48 7.26 9.71 10.44 6.65 6 12.73 11.58 18.56 17.11-.85.43-6.34-6.21-6.77-5.3 5.65 5.12 9.3 7.68 14.49 13.18 1.3 1.47-1.06-.51-1.64-.87 5.65 5.12 10.35 10.47 15.49 14.91a5 5 0 0 1-1.19-.85c1 .92 2.1 2.29 2.28 1.89l-1-.84c-1.08-1.93 4.63 2.87 5 2.82-2.43-.77 4.52 4.94.93 3.44.67.57 1.59 1.21 1.64.87.87 1 1.05 1.39-.11.67 3.54 3.23 2.65 1.72 5.7 4.79-.15.13-.82-.44-1.3-.59a32.52 32.52 0 0 1 6.12 5.27c-.24-.07-.05.34-.82-.44 4.49 4.41 8.31 6.85 12.92 12-1-.41-.66 0-.07.72l.44.5.17.27c.08.18.07.32-.1.41l.53.39-.44.61a9.48 9.48 0 0 0 .9-.38 11.74 11.74 0 0 0-.82.92l-1.4 1.63a28.1 28.1 0 0 1-3 3.07l1.48-1.93-4.2 4.41 2.64-2.24c-2 2.6.91.42-2.29 3.33.57-.67-2.3 2.29-3.81 3.18a22.81 22.81 0 0 1-3.79 4.22c-.61.27-.22-.94-.62-.77-.68 1.56-5.26 5.5-6.21 7.39.36-.58.11-.88-.1-.78l-.58 1.3c-1.18 1-1.39 1.05-1.44.65-3.27 3.14 1.68-.34-2.4 3.17a8.18 8.18 0 0 1 .64-.92c-4 3.67-7.15 7.6-10.83 10.93-1.57.5 2.93-3.19 1.3-2.46-5 5.15-9.83 11.11-14.84 15.87l1-.85c.07 1.43-4 3.27-6.14 6.1.55-.66.38-1.21.3-1-3.47 3.23-6.66 7-11.5 12.35l.43-.82c-2.14 1.8-5.3 5.1-7.52 7.14-.44.83-1.69 2-.67 1.56-7.67 5.47-11.95 13.13-18.7 18 .7-.69 1.5-1.83.94-1.27l-4.79 5.14c.72-.06.85-.45 2.15-1.24a19.88 19.88 0 0 1-2.92 3.61c2-2.45-.55-.51-1.69.28.26-.07 0 .37.22.4-3.18 2 .22 1.09-3.71 4.24v-.36a52.67 52.67 0 0 1-3.71 4.25c-1 .21 1.24-1.59 1-2-2 2-3.25 4.68-5.45 6.13.75-1 2-2.19 2.73-3.15a20.3 20.3 0 0 0-4.09 3.28l.16-.13-3.6 3.2 1-.75c-1.53 3.5-4.94 5.3-7.68 9.33 2.68-3.9.19-.9 0-1.58-1 .75-2.44 1.93-2.18 1.44-1.26 1.94-2.95 2.4-4.7 5.16-.24 0-1.73 1.7-1.71 1-2 2.19.73-.25.73.1-2.74 3.68-8.11 7-12.08 12.23-3.71 4.24-4 5.44-7.44 9.37-1.47 1 .51-1.53.51-1.53a39 39 0 0 0-5.42 5.41c.26-.5-.23-.21-1 .22-1.48 1.55-.51 1.51-2.72 3.32a9.08 9.08 0 0 1 1-2.08c-1.67 1.92-3.18 3.95-4.91 5.93-.73.25.75-1.49 1.25-2.3-2 2.2-5.18 5.62-5.45 6.65l1.48-1.21c-.74.78-.72.07-.23-.56 1.49-2.09 2.71-2.45 3-2.41l-1.23 1.41c2.16-.55 5.17-5.43 7.88-8.05l-.52 1.7 2.24-3.22c.73-.42 1.45-.49.23.91 2.2-1.61 1.48-1.9 3.44-3.21.23-.13.18 0 0 .17l1.69-2c-.24.49.73.11-.5 1.17 3.68-3 4.95-5.83 6.65-6.65l-.24.32c4.44-4.84 0-.88 3-4.87l3.4-1.27v-.89c.49-.46 1.47-1.38 1.47-1 1.48-2.08-.49.11.26-1.2 2.7-1.91 6.17-6.53 7.37-6.36.5-1.16-2.45 1.95-.22-.74 1.44 0 2.71-3 5.16-4.73-.27 1-2.46 2.81 0 1.05.63-1.92 4.24-4 5.89-5.85-.43-.6 3.65-4.08 6.46-7.23 0 .36 5.88-5.32 8.84-7.9v.16c0-1.05 3-3.81 4.95-6 .23.39 0 .89-1 2.16l1.95-2a11.79 11.79 0 0 1 2-2.66l-.11.88c2.59-2.62 4.79-5.7 8.4-8.79-.17-.55-3.67 1.66-.37-2.12.32.06.79.26-.06 1.27a10.81 10.81 0 0 1 1.62-1.77l-1.09 1.74c1.67-1.38.53-1.07 1.78-2.26.25.3 1.1-.7 1.14-.31a13.73 13.73 0 0 0-1.53 1.53 23 23 0 0 1 4-3.16c-.28 0-.37-.38.6-1.42 2.58-2.63 1.22-.56 2.89-1.93.43-.83 2.3-2.29 1.92-2.75a3 3 0 0 1 1.51-.88c1.16-1.54 6.24-6.35 4.28-5.28l-.38.32.2-.24c4-4.83 9.41-8.94 13.62-13.5l.13.15c2.46-2.78 5.73-5.92 7.3-8.09.77-.77 2.08-1.57 1.91-1.07a36.19 36.19 0 0 1 5.08-5.14c-1.76 2.25.91-.48-1.88 2.24 2.72-2.48 3.53-2.85 5.94-6-.59 1.31 2.41-1.5 3.54-2.85l-2.08 1.57c1.34-1.44 2.58-2.62 3.85-3.83l-.2 1.14c5.89-4.74 8.61-10.56 13.62-13.65 1.08-1.74-3.12 2.65-2.25 1 2.51-2.38 5.74-4.25 6.5-5 3.61-3.09 2.44-3.81 6.12-7.14-.61.28-1.48.26 1-2.52 2.51-2.39 3.71-2.31 2.3-.63-.57.61-.91.84-.94.75-.73.86-1.7 2-.54 1.18l.15-.49c1.38-1 4.73-4.43 4.21-3.36 1.69-2 .52-1.07-.94.22 1.19-1 2.15-1.93 3.05-2.82l4-4-1.88-1.9c-.33-.34-.67-.69-1-1.06l-.93-1c.15.24.54.78.64 1s0 .25-.35-.13l-1.51-1.61c-.38-.39-.69-.69-.93-.91a4.07 4.07 0 0 0-1-.72c-.45-.21-.74-.2-2.38-1.77-1.57-2.08 1.26 0-2.18-3-1.8-2.15 0-.86.94-.21-3.26-2.63-5.29-5.72-6.91-7.46l1.69 1.41a33.52 33.52 0 0 1-2.54-2.38l.55 1.22c-.85-1-1.62-1.74-1.47-1.86-1.15-.72.16 1.27-2-.29-1-1.38-3.88-3.51-3.85-4.38 3.66 4 0-.87 3.33 2.29a21.55 21.55 0 0 1-2.29-2.3c-.09-.19.22 0 .49.26-3.25-4.05-2.18-1.18-6-5 .73.23-.4-1.36-1.07-1.92 1.52 1.53.31 1.15-1.28-.06-2.24-2.63-2.79-2.5-4-3.79L346 170c-.74-.24-1.92-1.49-3.69-3.1.05-.34 1.67 1.4 1.15.71-2.32-1.44-3.79-4.7-6.71-7-1-1.39.36-.59-.59-1.78-3.27-2.61-2.84-3.52-6.2-6.34.55 1.23.79 1.3-1.71-.54l5.31 4.83-3.73-2.78c1.53 1.53 3.45 3 4.31 4-1.83-1.27-1.58-1.2-1.13-.18-1.59-2.61-4.45-3.87-6.53-6.63l.91-.76c-3.27-4-6.9-6.05-11.42-11l1.37 1.67c-1-.3-3-2.87-4.63-4.27.42-.14-.44-1.2-.92-2-.12.28-3.44-3.49-4.43-3.36l-1.74-2.47c-3.67-4-5.16-3.56-8.73-7.33 1.41.81-.06-1.06 2.61 1.18-1.22-1.23-2.27-2.38-2.48-2.21-.55-.89-3.78-3-4.64-4.41a6.39 6.39 0 0 1-2.45-1.67c-.1-.21.14-.13.14-.13s-2.34-2-1.45-.46c-2.9-4.65-10.62-10.49-13.16-14.53-2.77-2.58-6.08-5.71-8.53-8.12.24.07.15-.13.58.36-3.09-3.61-2.86-1.26-6.38-5.36-1.5-2.4 2.27 1.78 1.22.39.39-1.44-4.72-4.47-6.75-7.57l.67.56c-1.65-2.27-5.13-4.43-8.27-7.7 0 0 .24.07.16-.12-2.66-1.72-7-5.72-10.18-8.67 1.32.6 1.59 1.21 1.37.26-1.43-1.33-.18 1-3-1.66-.7-1.1-2.51-3.26-2.39-3.91l2.62 2.58c-.82-1.84-3.38-3.35-4.66-4.81h.39c-4.06-3.91-4.67-3.41-8.91-7.74l.27.61c-2.89-1.79-1.65-2.27-4.4-4.2l-.18-1.34c-1.68-1.41-6-4.87-8.83-7.54 2 1.16 5.44 4.19 7.69 6-1.53-1.54-5.25-5.17-6.32-5.69a14.73 14.73 0 0 1 2.11 1.9 46.45 46.45 0 0 1-8.05-6.76c.53-.17-.11-1.11-1.25-2.41-.58-.64-1.28-1.38-2-2.15L199 22.84a110.19 110.19 0 0 1-3.54 3.3 9.78 9.78 0 0 1-1.94 1.33c-5 5.8-10.88 10.54-17.11 16.89 3.08-1.39-1.81 1.86-.56 2.34a14.48 14.48 0 0 1-2.17 2.14l-5 3.92c-1.31.8 1.2-1.58.87-1.64-3.27 3.14-1.71 1-4.06 2.87.74-.13-.68 1.56-2.62 3.27l3-2.18c-4 5-4.6 3.15-8.66 8.13l1.15-1.71c-2.13 2.5-8.53 8.55-10.11 11.5-.51.31-1.29.62-.33-.47-5.65 5.44-11.6 13.08-16.33 17l.21-.64c-1 1.1-1.41 2.2-2.91 3.28 0-.15.2-.63-.29-.16a31 31 0 0 1-3.87 4.36l.94-1.4c-5.69 5.12-7.72 8.87-12.11 13.55-.61-.64-5.06 3.41-7.29 5.44v-.17C99.89 120 96.08 125 90.5 131.05 86.21 134 78 143 71.77 148.46c1-.78.34.63-.63 1.73-1.49 1.23-3.34 4.2-3.7 3.41l.5-.47c-1.59.46-4.24 3.42-6.45 5.59l.39 1.11c-6.81 4.64-14.61 15.41-18.71 17.56-1.19 1.57-2.91 3.28-4.09 4.83l-.33-.47c-3.93 3.73-5.89 5.59-10.53 10.42l.68-1.26c-2.69 2.65-2.21 4.53-4.65 7l-1.34.14-1.1 1.08-1.18 1.14-3.85 3.73 4 4.16c.78.82 1.57 1.64 2.37 2.44a56.62 56.62 0 0 0 5 4.54c-.16 0-.47.05-1.25-.68 2.18 2.21 8.08 8.89 8.1 7.27-.48.59 4.76 4.86 7.51 7.14h-.79a26.37 26.37 0 0 1 5.94 4.37c.65.76.3.94-.53-.1 2.13 2.55 2.19 1.45 4.82 4.5l-1.31-.8A12.93 12.93 0 0 0 54.6 240c1.68 1.36 4.47 4.67 4.47 5.38a9.23 9.23 0 0 1 3.47 2.62c.06.33-.54-.11-.84-.33 3.76 4.3 6.45 5.54 8.83 8.69-.07.19 0 .44.23.71-3.19-3.21-5.74-5.81-5.47-5.6-.37.36 2.15 3-.4 1.46 2.34 1.8 6.49 4.75 8.84 7.44a2 2 0 0 1 .2.46l-.3-.22a11.51 11.51 0 0 0 1.65 1.53c.75.87 1.21 1.42 2 2.2 0 .6 2.8 3.13 4.08 4.43.29-.5 1.91 1.25.66-.66.17.23-.29-.2-1.17-1-.2-.18-.44-.4-.59-.51l.13.06-3.23-3.18a13.17 13.17 0 0 1 3.65 3.36c.92.4 1.91.87 2.45 1.15 1.2 2.32 4.3 6 4.44 6.84 4.15 3.71 9.41 9.12 12.64 10.85a3.94 3.94 0 0 1 1.37 2 22.86 22.86 0 0 0-1.94-1.59c2.43 2 6.71 6.56 7.76 6.57 2.59 3.05-2.06-1.11 1.9 2.68l-.69-.36c6.79 8.45 13.73 11.06 21.11 20.58a4.31 4.31 0 0 1-.82-1.18c9.17 10.11 20.3 19.41 29.06 29.67 2.55 2.85 3.18 2.81 5.08 4.2l.16 1 3.31 2.32c4.36 3.64 5.88 8 11.62 12.36l-.36-.94c1.76 1.87 5.92 5.58 5.29 5.61a3 3 0 0 1 1.46 1.16l-.17.28 4.85 4.08c3.3 3.63-1.43.35 3.58 5.44 2 1.79 6 4.7 5.44 3.85-.75-.77-1.8-2.08-1.63-2.36l1.83 1.6c1-.35 3 .3-.79-4.38l-3.34-2.53-.63-1.27 2.5 2.45a10.33 10.33 0 0 0-3.44-3.14 3.82 3.82 0 0 0-.88-1.58l-3.53-2.2c-.09-.61 1.8.78 0-1.3-1.64-1.06.72 1.87-1.71-.17-1.11-1.71-.45-1.54-2.36-2.93-.06-.4.4-.16 1.13.42-1.68-1.27-4-3.8-5.08-4.21-1.1-1.84-5.06-4.86-4.29-5.34a31.07 31.07 0 0 1-4.45-3.42c3.21 1.71-5-5.1-3.55-5.24-2.5-1.16-6.89-6.29-10.49-9.15a3 3 0 0 1 .94.69 41.61 41.61 0 0 1-3.13-3.9c-.78.32-3.74-2.38-5.61-3.57-1.69-2.76 2 .71 1.82-.51-.34.56-4.32-3.42-3.94-2.29-1.37-2-1.31-1.63-1.73-3-1 .4-1.7-1.47-3.54-2.45-2.12-2.81 0-1.29-2.91-3.79-1.06-1.49 1.59.68 1.59.68zm-65.64-63.25l1.35 1.31zm-5.42-5.41c.64.68 1.46 1.5 2.33 2.37.06.32-.29.26-.83-.29.43.2-.81-1.15-1.5-2.08zm8.7 14.21c-.91-.8-1.12-1.16-1.16-1.36l1.55 1.45h.15a1.14 1.14 0 0 1-.54-.09z"/><path class="cls-2" d="M80.83 267.09c.14.12.22.17.39.33-.14-.21-.28-.41-.43-.6l-.42-.18zm226.46 8.7l.12-.1a1.25 1.25 0 0 1-.3.18c.1-.06.11-.04.18-.08zM47.78 179.95l-.11-.09-.38.56.49-.47zM276.1 304.26a1.36 1.36 0 0 0-.5.29 2.62 2.62 0 0 0 .5-.29zm-12.98 12.79l-2 1.68c.88-.73 1.52-1.24 2-1.68zM253 326.76a.57.57 0 0 0 0 .36zm89.69-154.92l-.4-.36c-.98-.82-.29-.24.4.36zm21.42 44.75c.43-.57.85-1.13 1.32-1.7-.86.81-1.52 1.45-1.32 1.7zM289.87 120l-.32-.32zm77.75 92.72a18 18 0 0 0-2.19 2.17 24.9 24.9 0 0 0 2.19-2.17zM209.9 369.51l-.49.46v.12zm-.48.58l-.48.58a2.12 2.12 0 0 0 .48-.58zm-1.5 1.8l1-1.22a4.71 4.71 0 0 0-1 1.22zm15.28-15.31v-.29a.3.3 0 0 0 0 .29zm3.95-4.02a41.3 41.3 0 0 0-3.93 3.49v.24c.4-.84 3.27-2.59 3.93-3.73zm18.41-14.85l-3.45 3.22c.73-.43 1.71-1 .23.56 4.66-3.75-1.22.51 3.22-3.78zm10.58-10.14c-1.72 1.87.24.21.23.39 1-1.28 1.24-1.59-.23-.39zM331 252.75l.18.54c1.3-1.43-.18-.15-.18-.54zm12.4-16.18l-1.57 1.13-.31.97 1.88-2.1zm11.03-5.87l-.55.66 2.17-2.44-1.62 1.78zM278.8 101.93v.86c.99.86 1.68.55 0-.86zm-54.71-53.8a9.62 9.62 0 0 0-2.91-3.2c1.19 1.25 2.24 2.64 2.91 3.2zM58.59 161.99l.95-1.24-1.94 2.18.99-.94zM198.06 364c-.26.49.23.56 1.22-.53l.27-1.21zm7.85-6.16c1-1.45 2-3.25.78-2.89-.76 1.66-1.24 1.76-2 3.6-1 1.09-2 1.66-2 1.31-.25.49-1.72 1.51-2 2.37a16.54 16.54 0 0 0 4.93-4.78c.54-.28.29.22.29.39zm102.21-100.75l-.71.6a7.86 7.86 0 0 0 .71-.6zm63.13-62.62c-.46.49-.62.74-.6.8.41-.47.75-.87.6-.8zm4.9-13.08l.6.67a2.72 2.72 0 0 0-.6-.67zm-68.03 75.7l1.83-1.53c-.04-.27-.95.74-1.83 1.53zm-89.35 85.63a9.65 9.65 0 0 0-.78 1l.8-.9a.51.51 0 0 1-.02-.1zm62.01-57.53l-.51.51a3.79 3.79 0 0 0-.23.61zm-21.2 21.34c.5-.46.27-1 .28-1.39a3.33 3.33 0 0 1-.78 1.33c.07.08.23.11.5.06zm-34.43 33.03l-.54.65zm70.94-69.51a.59.59 0 0 0 .34-.05c-.05 0-.17 0-.34.05zm-119.88 68.32c-.05 0 0 .06-.07.08.16.08.23.09.07-.08zM198.9 365l-.37-.32a.8.8 0 0 0-.29.15zM357 161.24l.08.09c.57.48.27.19-.08-.09zM173.07 29.74c2.4-1.69-2.87 3.78.6 1.1-.44.16 2.18-3.41-.6-1.1zm46.31 312.48l.87-.88c-.41.39-.68.66-.87.88zM173.67 30.84l.35-.28zm137.84 85.37a2.34 2.34 0 0 0 .28.64c.03-.06-.03-.21-.28-.64zm33.15 34.29l-.78-.89c.3.39.55.65.78.89zm-51.23-51.24a8.28 8.28 0 0 0-1.19-1.26 2.1 2.1 0 0 0 .14.24 3.93 3.93 0 0 1 1.05 1.02zM275.21 81a4.5 4.5 0 0 0 .25.41l.6.56zM120.63 283.18a4.1 4.1 0 0 1 .48 1.2c.01-.57 2.78 2.01-.48-1.2zM219 342.93a1.13 1.13 0 0 1 .37-.71l-.59.63c.02.15.06.15.22.08zm70.56-241.27l-2.84-3c.77.89 1.8 1.96 2.84 3zM53.61 155.72l-.61.72a3.38 3.38 0 0 0 .61-.72zm224.46-65.55a13.38 13.38 0 0 0-1.36-1.91 1.87 1.87 0 0 0-.44-.23zM121.12 284.39z"/><path class="cls-2" d="M141.13 302.52c-2.74-2.77-1.8-.79-2.69-1.07-3.44-3.15-1.14-1.91-2-3.3-2.2-1.92-4.25-3-5.77-4.57 0-.2-.29-.53.17-.29-2.59-1.76-6.48-6.43-9.53-8.44a1.19 1.19 0 0 1-.2-.46c.14.67-.06 1-.33 1.1-1.25-1.22-2.63-2-2.75-2.77a3.39 3.39 0 0 0 1.41.94l-1.44-1.14c-.68-1.66 1.93 1.59 2.3 1.23-2.69-2.37-6-4.91-7.84-7 .08-.89 4.69 4.37 2.53 1.36l2.82 3.18c-1.53-3.05 1.76 1.87.47-1.05-3.8-4.08-4.65-4.16-8.45-8.23-1.15-.62-.1.68-1.25.06-6.07-5.11-3.19-5.6-8-9.08-1.38-.74-2.4-.54-5-3.79l1.54.45c-3.77-3.87-3-1.4-6.6-5.76.93.5 3.18 2.82 2.67 2.18-2.16-3-2.14-1.53-4.13-3.52l.07-.89c-4.14-4-9-8.12-13.56-12.53.4.1 1.32.72.41-.48-5.86-5.41-11.98-12.15-17.19-17.92l-2.51-1.67c-.48-.49-.71-1.09-.11-.65-2-2.29-.37.16-1.56-.71-1.24-1.18-1.36-1.84-.47-1.19-4.12-3.42-11.49-10-15-14.39l.9.65c-2.92-3.26-4.34-2.63-6.82-5.89l.62.48c-2-2.13-4.16-4.28-6.28-6.39l-3.16-3.15-1.12-1.12-.67-.7 2.39-2.18c1.18-1.06 2.32-2 3.41-2.9.38-1.57 6.91-6.37 6.51-7.63 4.24-3.42 3.29-2.17 9-7.29 1.48-1.4 1.63-2.67 3.32-4.53l.48.39 2-2.88 1.81-.76 1.47-1.78c-.69.64-1.61 1.21-1.64 1 2.42-2.81 6.67-6.06 7-5.9l5.8-6.54c0 .31-.94 1.41-1.64 2.33 2.85-3.74 1.06-.14 3.67-3.56-.51.3 0-.48-.06-.64a65.7 65.7 0 0 0 7.62-7.31l-.19.79c4.66-4.5 9.51-9.8 14.65-14.93-2 1.7-2.08.76-.62-.8l1.06-.14c.69-1.26-1.75 1.4-.1-1 2-1.86 1.82-.76.87.49l2.17-2.49c.27 0-.2.62-.17.93.67-1.24 4.49-3.56 5.38-5.44h.2c5.14-5.14 7.31-7.62 11.47-11.83-.32-.48 1.41-2 2.33-3.6 3.2-2.95 6.93-6 10.6-9.78 2.41-2.81.42-1.1 1.36-2.51.55.17 4.22-3.56 2.56-1.38 4.39-4.51 5.61-5.75 10.94-11.67-.76.46-1.51 1.08-1.28.6 1-1.08 2.47-2.17 2.5-1.85l-.23.31c5.77-6.86 15.62-13.51 19.89-19.3l-.24.32 4.82-5.6c2.46-2.34-1.17 1.71.83.16 5-6.23 9-8.8 13.2-13.83 4.65-2.52 12.65-12.8 18.17-16.95h-.54c1-1.5 1.66-1.37 2.64-2.24-.33-.06-1.58 1.13-.94.22l3.92-3.97 5 5.2 6.62 7c4.41 4.7 8.79 9.42 13.19 14 3.9 4 3.56.95 8 6.56l-1.89-1c8.58 7.46 16.37 16.41 24.7 23.78a4.52 4.52 0 0 1-1.5-1c1.32 2 6.11 6.15 6.42 5.9 1.19 1.25 0 .53.64 1.43 1.47 1.86 4.61 3.74 5.16 5 .09.2-.58-.36-.91-.64 1.25.92 5 5.09 4.36 3.66 2.76 3.13 5.81 5.46 7.92 8 2 1.1 4.83 5.25 5.94 5.12-.85.43 4.65 5.68 6.81 7.24-.82-.43 1.42 1.82.42 1.36 2.13 2.12 4.2 3.94 4.16 3.24 3.15 4.69 8.48 7.26 9.71 10.44 6.65 6 12.73 11.58 18.56 17.11-.85.43-6.34-6.21-6.77-5.3 5.65 5.12 9.3 7.68 14.49 13.18 1.3 1.47-1.06-.51-1.64-.87 5.65 5.12 10.35 10.47 15.49 14.91a5 5 0 0 1-1.19-.85c1 .92 2.1 2.29 2.28 1.89l-1-.84c-1.08-1.93 4.63 2.87 5 2.82-2.43-.77 4.52 4.94.93 3.44.67.57 1.59 1.21 1.64.87.87 1 1.05 1.39-.11.67 3.54 3.23 2.65 1.72 5.7 4.79-.15.13-.82-.44-1.3-.59a32.52 32.52 0 0 1 6.12 5.27c-.24-.07-.05.34-.82-.44 4.49 4.41 8.31 6.85 12.92 12-1-.41-.66 0-.07.72l.44.5.17.27c.08.18.07.32-.1.41l.53.39-.44.61a9.48 9.48 0 0 0 .9-.38 11.74 11.74 0 0 0-.82.92l-1.4 1.63a28.1 28.1 0 0 1-3 3.07l1.48-1.93-4.2 4.41 2.64-2.24c-2 2.6.91.42-2.29 3.33.57-.67-2.3 2.29-3.81 3.18a22.81 22.81 0 0 1-3.79 4.22c-.61.27-.22-.94-.62-.77-.68 1.56-5.26 5.5-6.21 7.39.36-.58.11-.88-.1-.78l-.58 1.3c-1.18 1-1.39 1.05-1.44.65-3.27 3.14 1.68-.34-2.4 3.17a8.18 8.18 0 0 1 .64-.92c-4 3.67-7.15 7.6-10.83 10.93-1.57.5 2.93-3.19 1.3-2.46-5 5.15-9.83 11.11-14.84 15.87l1-.85c.07 1.43-4 3.27-6.14 6.1.55-.66.38-1.21.3-1-3.47 3.23-6.66 7-11.5 12.35l.43-.82c-2.14 1.8-5.3 5.1-7.52 7.14-.44.83-1.69 2-.67 1.56-7.67 5.47-11.95 13.13-18.7 18 .7-.69 1.5-1.83.94-1.27l-4.79 5.14c.72-.06.85-.45 2.15-1.24a19.88 19.88 0 0 1-2.92 3.61c2-2.45-.55-.51-1.69.28.26-.07 0 .37.22.4-3.18 2 .22 1.09-3.71 4.24v-.36a52.67 52.67 0 0 1-3.71 4.25c-1 .21 1.24-1.59 1-2-2 2-3.25 4.68-5.45 6.13.75-1 2-2.19 2.73-3.15a20.3 20.3 0 0 0-4.09 3.28l.16-.13-3.6 3.2 1-.75c-1.53 3.5-4.94 5.3-7.68 9.33 2.68-3.9.19-.9 0-1.58-1 .75-2.44 1.93-2.18 1.44-1.26 1.94-2.95 2.4-4.7 5.16-.24 0-1.73 1.7-1.71 1-2 2.19.73-.25.73.1-2.74 3.68-8.11 7-12.08 12.23-3.71 4.24-4 5.44-7.44 9.37-1.47 1 .51-1.53.51-1.53a39 39 0 0 0-5.42 5.41c.26-.5-.23-.21-1 .22-1.48 1.55-.51 1.51-2.72 3.32a9.08 9.08 0 0 1 1-2.08c-1.67 1.92-3.18 3.95-4.91 5.93-.73.25.75-1.49 1.25-2.3-2 2.2-5.18 5.62-5.45 6.65l1.48-1.21c-.74.78-.72.07-.23-.56 1.49-2.09 2.71-2.45 3-2.41l-1.23 1.41c2.16-.55 5.17-5.43 7.88-8.05l-.52 1.7 2.24-3.22c.73-.42 1.45-.49.23.91 2.2-1.61 1.48-1.9 3.44-3.21.23-.13.18 0 0 .17l1.69-2c-.24.49.73.11-.5 1.17 3.68-3 4.95-5.83 6.65-6.65l-.24.32c4.44-4.84 0-.88 3-4.87l3.4-1.27v-.89c.49-.46 1.47-1.38 1.47-1 1.48-2.08-.49.11.26-1.2 2.7-1.91 6.17-6.53 7.37-6.36.5-1.16-2.45 1.95-.22-.74 1.44 0 2.71-3 5.16-4.73-.27 1-2.46 2.81 0 1.05.63-1.92 4.24-4 5.89-5.85-.43-.6 3.65-4.08 6.46-7.23 0 .36 5.88-5.32 8.84-7.9v.16c0-1.05 3-3.81 4.95-6 .23.39 0 .89-1 2.16l1.95-2a11.79 11.79 0 0 1 2-2.66l-.11.88c2.59-2.62 4.79-5.7 8.4-8.79-.17-.55-3.67 1.66-.37-2.12.32.06.79.26-.06 1.27a10.81 10.81 0 0 1 1.62-1.77l-1.09 1.74c1.67-1.38.53-1.07 1.78-2.26.25.3 1.1-.7 1.14-.31a13.73 13.73 0 0 0-1.53 1.53 23 23 0 0 1 4-3.16c-.28 0-.37-.38.6-1.42 2.58-2.63 1.22-.56 2.89-1.93.43-.83 2.3-2.29 1.92-2.75a3 3 0 0 1 1.51-.88c1.16-1.54 6.24-6.35 4.28-5.28l-.38.32.2-.24c4-4.83 9.41-8.94 13.62-13.5l.13.15c2.46-2.78 5.73-5.92 7.3-8.09.77-.77 2.08-1.57 1.91-1.07a36.19 36.19 0 0 1 5.08-5.14c-1.76 2.25.91-.48-1.88 2.24 2.72-2.48 3.53-2.85 5.94-6-.59 1.31 2.41-1.5 3.54-2.85l-2.08 1.57c1.34-1.44 2.58-2.62 3.85-3.83l-.2 1.14c5.89-4.74 8.61-10.56 13.62-13.65 1.08-1.74-3.12 2.65-2.25 1 2.51-2.38 5.74-4.25 6.5-5 3.61-3.09 2.44-3.81 6.12-7.14-.61.28-1.48.26 1-2.52 2.51-2.39 3.71-2.31 2.3-.63-.57.61-.91.84-.94.75-.73.86-1.7 2-.54 1.18l.15-.49c1.38-1 4.73-4.43 4.21-3.36 1.69-2 .52-1.07-.94.22 1.19-1 2.15-1.93 3.05-2.82l4-4-1.88-1.9c-.33-.34-.67-.69-1-1.06l-.93-1c.15.24.54.78.64 1s0 .25-.35-.13l-1.51-1.61c-.38-.39-.69-.69-.93-.91a4.07 4.07 0 0 0-1-.72c-.45-.21-.74-.2-2.38-1.77-1.57-2.08 1.26 0-2.18-3-1.8-2.15 0-.86.94-.21-3.26-2.63-5.29-5.72-6.91-7.46l1.69 1.41a33.52 33.52 0 0 1-2.54-2.38l.55 1.22c-.85-1-1.62-1.74-1.47-1.86-1.15-.72.16 1.27-2-.29-1-1.38-3.88-3.51-3.85-4.38 3.66 4 0-.87 3.33 2.29a21.55 21.55 0 0 1-2.29-2.3c-.09-.19.22 0 .49.26-3.25-4.05-2.18-1.18-6-5 .73.23-.4-1.36-1.07-1.92 1.52 1.53.31 1.15-1.28-.06-2.24-2.63-2.79-2.5-4-3.79L346 152c-.74-.24-1.92-1.49-3.69-3.1.05-.34 1.67 1.4 1.15.71-2.32-1.44-3.79-4.7-6.71-7-1-1.39.36-.59-.59-1.78-3.27-2.61-2.84-3.52-6.2-6.34.55 1.23.79 1.3-1.71-.54l5.31 4.83-3.73-2.78c1.53 1.53 3.45 3 4.31 4-1.83-1.27-1.58-1.2-1.13-.18-1.59-2.61-4.45-3.87-6.53-6.63l.91-.76c-3.27-4-6.9-6.05-11.42-11l1.37 1.67c-1-.3-3-2.87-4.63-4.27.42-.14-.44-1.2-.92-2-.12.28-3.44-3.49-4.43-3.36l-1.74-2.47c-3.67-4-5.16-3.56-8.73-7.33 1.41.81-.06-1.06 2.61 1.18-1.22-1.23-2.27-2.38-2.48-2.21-.55-.89-3.78-3-4.64-4.41a6.39 6.39 0 0 1-2.45-1.67c-.1-.21.14-.13.14-.13s-2.34-2-1.45-.46c-2.9-4.65-10.62-10.49-13.16-14.53-2.77-2.58-6.08-5.71-8.53-8.12.24.07.15-.13.58.36-3.09-3.61-2.86-1.26-6.38-5.36-1.5-2.4 2.27 1.78 1.22.39.39-1.44-4.72-4.47-6.75-7.57l.67.56c-1.65-2.27-5.13-4.43-8.27-7.7 0 0 .24.07.16-.12-2.66-1.72-7-5.72-10.18-8.67 1.32.6 1.59 1.21 1.37.26-1.43-1.33-.18 1-3-1.66-.7-1.1-2.51-3.26-2.39-3.91l2.62 2.58c-.82-1.84-3.38-3.35-4.66-4.81h.39c-4.06-3.91-4.67-3.41-8.91-7.74l.27.61c-2.89-1.79-1.65-2.27-4.4-4.2l-.18-1.34c-1.68-1.41-6-4.87-8.83-7.54 2 1.16 5.44 4.19 7.69 5.95-1.53-1.54-5.25-5.17-6.32-5.69a14.73 14.73 0 0 1 2.11 1.9 46.45 46.45 0 0 1-8.05-6.76c.53-.17-.11-1.11-1.25-2.41-.58-.64-1.28-1.38-2-2.15L199 4.84a110.19 110.19 0 0 1-3.54 3.3 9.78 9.78 0 0 1-1.94 1.33c-5 5.8-10.88 10.54-17.11 16.89 3.08-1.39-1.81 1.86-.56 2.34a14.48 14.48 0 0 1-2.17 2.14l-5 3.92c-1.31.8 1.2-1.58.87-1.64-3.27 3.14-1.71 1-4.06 2.87.74-.13-.68 1.56-2.62 3.27l3-2.18c-4 5-4.6 3.15-8.66 8.13l1.15-1.71c-2.13 2.5-8.53 8.55-10.11 11.5-.51.31-1.29.62-.33-.47-5.65 5.44-11.6 13.08-16.33 17l.21-.64c-1 1.1-1.41 2.2-2.91 3.28 0-.15.2-.63-.29-.16a31 31 0 0 1-3.87 4.36l.94-1.4c-5.67 5.1-7.67 8.85-12.11 13.53-.61-.64-5.06 3.41-7.29 5.44v-.17C99.89 102 96.08 107 90.5 113.05 86.21 116 78 125 71.77 130.46c1-.78.34.63-.63 1.73-1.49 1.23-3.34 4.2-3.7 3.41l.5-.47c-1.59.46-4.24 3.42-6.45 5.59l.39 1.11c-6.81 4.64-14.61 15.41-18.71 17.56-1.19 1.57-2.91 3.28-4.09 4.83l-.33-.47c-3.93 3.73-5.89 5.59-10.53 10.42l.68-1.26c-2.69 2.65-2.21 4.53-4.65 7l-1.34.14-1.1 1.08-1.18 1.14-3.85 3.73 4 4.16c.78.82 1.57 1.64 2.37 2.44a56.62 56.62 0 0 0 5 4.54c-.16 0-.47.05-1.25-.68 2.18 2.21 8.08 8.89 8.1 7.27-.48.59 4.76 4.86 7.51 7.14h-.79a26.37 26.37 0 0 1 5.94 4.37c.65.76.3.94-.53-.1 2.13 2.55 2.19 1.45 4.82 4.5l-1.31-.8A12.93 12.93 0 0 0 54.6 222c1.68 1.36 4.47 4.67 4.47 5.38a9.23 9.23 0 0 1 3.47 2.62c.06.33-.54-.11-.84-.33 3.76 4.3 6.45 5.54 8.83 8.69-.07.19 0 .44.23.71-3.19-3.21-5.74-5.81-5.47-5.6-.37.36 2.15 3-.4 1.46 2.34 1.8 6.49 4.75 8.84 7.44a2 2 0 0 1 .2.46l-.3-.22a11.51 11.51 0 0 0 1.65 1.53c.75.87 1.21 1.42 2 2.2 0 .6 2.8 3.13 4.08 4.43.29-.5 1.91 1.25.66-.66.17.23-.29-.2-1.17-1-.2-.18-.44-.4-.59-.51l.13.06-3.23-3.18a13.17 13.17 0 0 1 3.65 3.36c.92.4 1.91.87 2.45 1.15 1.2 2.32 4.3 6 4.44 6.84 4.15 3.71 9.41 9.12 12.64 10.85a3.94 3.94 0 0 1 1.37 2 22.86 22.86 0 0 0-1.94-1.59c2.43 2 6.71 6.56 7.76 6.57 2.59 3.05-2.06-1.11 1.9 2.68l-.69-.36c6.79 8.45 13.73 11.06 21.11 20.58a4.31 4.31 0 0 1-.82-1.18c9.17 10.11 20.3 19.41 29.06 29.67 2.55 2.85 3.18 2.81 5.08 4.2l.16 1 3.31 2.32c4.36 3.64 5.88 8 11.62 12.36l-.36-.94c1.76 1.87 5.92 5.58 5.29 5.61a3 3 0 0 1 1.46 1.16l-.17.28 4.85 4.08c3.3 3.63-1.43.35 3.58 5.44 2 1.79 6 4.7 5.44 3.85-.75-.77-1.8-2.08-1.63-2.36l1.83 1.6c1-.35 3 .3-.79-4.38l-3.34-2.53-.63-1.27 2.5 2.45a10.33 10.33 0 0 0-3.44-3.14 3.82 3.82 0 0 0-.88-1.58l-3.53-2.2c-.09-.61 1.8.78 0-1.3-1.64-1.06.72 1.87-1.71-.17-1.11-1.71-.45-1.54-2.36-2.93-.06-.4.4-.16 1.13.42-1.68-1.27-4-3.8-5.08-4.21-1.1-1.84-5.06-4.86-4.29-5.34a31.07 31.07 0 0 1-4.45-3.42c3.21 1.71-5-5.1-3.55-5.24-2.5-1.16-6.89-6.29-10.49-9.15a3 3 0 0 1 .94.69 41.61 41.61 0 0 1-3.13-3.9c-.78.32-3.74-2.38-5.61-3.57-1.69-2.76 2 .71 1.82-.51-.34.56-4.32-3.42-3.94-2.29-1.37-2-1.31-1.63-1.73-3-1 .4-1.7-1.47-3.54-2.45-2.12-2.81 0-1.29-2.91-3.79-1.06-1.49 1.59.68 1.59.68zm-65.64-63.25l1.35 1.31zm-5.42-5.41c.64.68 1.46 1.5 2.33 2.37.06.32-.29.26-.83-.29.43.2-.81-1.15-1.5-2.08zm8.7 14.21c-.91-.8-1.12-1.16-1.16-1.36l1.55 1.45.15.05a1.14 1.14 0 0 1-.54-.14z"/><path class="cls-2" d="M80.83 249.09c.14.12.22.17.39.33-.14-.21-.28-.41-.43-.6l-.42-.18zm226.46 8.7l.12-.1a1.25 1.25 0 0 1-.3.18c.1-.06.11-.04.18-.08zM47.78 161.95l-.11-.09-.38.56.49-.47zM276.1 286.26a1.36 1.36 0 0 0-.5.29 2.62 2.62 0 0 0 .5-.29zm-12.98 12.79l-2 1.68c.88-.73 1.52-1.24 2-1.68zM253 308.76a.57.57 0 0 0 0 .36zm89.69-154.92l-.4-.36c-.98-.82-.29-.24.4.36zm21.42 44.75c.43-.57.85-1.13 1.32-1.7-.86.81-1.52 1.45-1.32 1.7zM289.87 102l-.32-.32zm77.75 92.72a18 18 0 0 0-2.19 2.17 24.9 24.9 0 0 0 2.19-2.17zM209.9 351.51l-.49.46v.12zm-.48.58l-.48.58a2.12 2.12 0 0 0 .48-.58zm-1.5 1.8l1-1.22a4.71 4.71 0 0 0-1 1.22zm15.28-15.31v-.29a.3.3 0 0 0 0 .29zm3.95-4.02a41.3 41.3 0 0 0-3.93 3.49v.24c.4-.84 3.27-2.59 3.93-3.73zm18.41-14.85l-3.45 3.22c.73-.43 1.71-1 .23.56 4.66-3.75-1.22.51 3.22-3.78zm10.58-10.14c-1.72 1.87.24.21.23.39 1-1.28 1.24-1.59-.23-.39zM331 234.75l.18.54c1.3-1.43-.18-.15-.18-.54zm12.4-16.18l-1.57 1.13-.31.97 1.88-2.1zm11.03-5.87l-.55.66 2.17-2.44-1.62 1.78zM278.8 83.93v.86c.99.86 1.68.55 0-.86zm-54.71-53.8a9.62 9.62 0 0 0-2.91-3.2c1.19 1.25 2.24 2.64 2.91 3.2zM58.59 143.99l.95-1.24-1.94 2.18.99-.94z"/><text transform="matrix(.98 0 0 1 84.61 249.23)" font-size="143" font-family="Copperplate,Copperplate" letter-spacing="-.06em">WD</text></svg>